<svg width="25" height="25" viewBox="0 0 25 25" fill="none" xmlns="http://www.w3.org/2000/svg">
<path d="M21 8.5V16.7C21 18.3802 21 19.2202 20.673 19.862C20.3854 20.4265 19.9265 20.8854 19.362 21.173C18.7202 21.5 17.8802 21.5 16.2 21.5H8.8C7.11984 21.5 6.27976 21.5 5.63803 21.173C5.07354 20.8854 4.6146 20.4265 4.32698 19.862C4 19.2202 4 18.3802 4 16.7V8.5M4.1 3.5H20.9C21.4601 3.5 21.7401 3.5 21.954 3.60899C22.1422 3.70487 22.2951 3.85785 22.391 4.04601C22.5 4.25992 22.5 4.53995 22.5 5.1V6.9C22.5 7.46005 22.5 7.74008 22.391 7.95399C22.2951 8.14215 22.1422 8.29513 21.954 8.39101C21.7401 8.5 21.4601 8.5 20.9 8.5H4.1C3.53995 8.5 3.25992 8.5 3.04601 8.39101C2.85785 8.29513 2.70487 8.14215 2.60899 7.95399C2.5 7.74008 2.5 7.46005 2.5 6.9V5.1C2.5 4.53995 2.5 4.25992 2.60899 4.04601C2.70487 3.85785 2.85785 3.70487 3.04601 3.60899C3.25992 3.5 3.53995 3.5 4.1 3.5ZM10.1 12H14.9C15.4601 12 15.7401 12 15.954 12.109C16.1422 12.2049 16.2951 12.3578 16.391 12.546C16.5 12.7599 16.5 13.0399 16.5 13.6V14.4C16.5 14.9601 16.5 15.2401 16.391 15.454C16.2951 15.6422 16.1422 15.7951 15.954 15.891C15.7401 16 15.4601 16 14.9 16H10.1C9.53995 16 9.25992 16 9.04601 15.891C8.85785 15.7951 8.70487 15.6422 8.60899 15.454C8.5 15.2401 8.5 14.9601 8.5 14.4V13.6C8.5 13.0399 8.5 12.7599 8.60899 12.546C8.70487 12.3578 8.85785 12.2049 9.04601 12.109C9.25992 12 9.53995 12 10.1 12Z" stroke="#8E9399" stroke-width="2" stroke-linecap="round" stroke-linejoin="round"/>
</svg>
