<svg width="25" height="25" viewBox="0 0 25 25" fill="none" xmlns="http://www.w3.org/2000/svg">
<path d="M5.89995 13.5C5.89995 10.1863 8.58625 7.5 11.9 7.5M5.89995 13.5C5.89995 15.1484 6.56468 16.6415 7.6407 17.726C7.74447 17.8305 7.79636 17.8828 7.82699 17.9331C7.85621 17.9811 7.87322 18.0224 7.88628 18.0771C7.89996 18.1343 7.89995 18.1995 7.89995 18.3298V20.7C7.89995 20.98 7.89995 21.12 7.95445 21.227C8.00239 21.3211 8.07888 21.3976 8.17296 21.4455C8.27992 21.5 8.41993 21.5 8.69995 21.5H10.6C10.88 21.5 11.02 21.5 11.127 21.4455C11.221 21.3976 11.2975 21.3211 11.3455 21.227C11.4 21.12 11.4 20.98 11.4 20.7V20.3C11.4 20.02 11.4 19.88 11.4545 19.773C11.5024 19.6789 11.5789 19.6024 11.673 19.5545C11.7799 19.5 11.9199 19.5 12.2 19.5H13.6C13.88 19.5 14.02 19.5 14.127 19.5545C14.221 19.6024 14.2975 19.6789 14.3455 19.773C14.4 19.88 14.4 20.02 14.4 20.3V20.7C14.4 20.98 14.4 21.12 14.4545 21.227C14.5024 21.3211 14.5789 21.3976 14.673 21.4455C14.7799 21.5 14.9199 21.5 15.2 21.5H17.1C17.3801 21.5 17.5201 21.5 17.627 21.4455C17.7211 21.3976 17.7976 21.3211 17.8455 21.227C17.9 21.12 17.9 20.98 17.9 20.7V19.7243C17.9 19.5223 17.9 19.4212 17.9288 19.3401C17.9564 19.2624 17.9911 19.208 18.05 19.1502C18.1114 19.09 18.2155 19.0417 18.4237 18.945C19.4059 18.489 20.2441 17.7751 20.8511 16.8902C20.9579 16.7346 21.0113 16.6568 21.0683 16.6108C21.1228 16.5668 21.1717 16.5411 21.2388 16.521C21.3089 16.5 21.3922 16.5 21.5588 16.5H22.1C22.3801 16.5 22.5201 16.5 22.627 16.4455C22.7211 16.3976 22.7976 16.3211 22.8455 16.227C22.9 16.12 22.9 15.98 22.9 15.7V12.2857C22.9 12.0192 22.9 11.8859 22.8505 11.783C22.8014 11.681 22.719 11.5987 22.617 11.5495C22.5142 11.5 22.3809 11.5 22.1143 11.5C21.9213 11.5 21.8248 11.5 21.7471 11.4738C21.6633 11.4456 21.6046 11.408 21.5438 11.3438C21.4874 11.2842 21.4413 11.1846 21.3493 10.9855C21.0538 10.3462 20.6492 9.76777 20.1593 9.27404C20.0555 9.16945 20.0036 9.11716 19.973 9.06687C19.9438 9.01889 19.9268 8.97759 19.9137 8.92294C19.9 8.86567 19.9 8.80051 19.9 8.67018V7.56058C19.9 7.20053 19.9 7.02051 19.825 6.89951C19.7594 6.79351 19.6565 6.71588 19.5365 6.68184C19.3995 6.64299 19.2264 6.69245 18.8803 6.79136L16.5077 7.46922C16.4674 7.48074 16.4472 7.4865 16.4267 7.49054C16.4085 7.49414 16.3901 7.49671 16.3716 7.49826C16.3508 7.5 16.3297 7.5 16.2874 7.5H11.9M5.89995 13.5H4.90002C3.79545 13.5 2.90002 12.6046 2.90002 11.5C2.90002 10.7597 3.30222 10.1134 3.90002 9.76756M11.9 7.5H15.8646C15.8879 7.3367 15.9 7.16976 15.9 7C15.9 5.067 14.333 3.5 12.4 3.5C10.467 3.5 8.90002 5.067 8.90002 7C8.90002 7.4172 8.97302 7.81736 9.10694 8.18839C9.94117 7.74881 10.8915 7.5 11.9 7.5Z" stroke="#8E9399" stroke-width="2" stroke-linecap="round" stroke-linejoin="round"/>
</svg>
