<svg width="25" height="24" viewBox="0 0 25 24" fill="none" xmlns="http://www.w3.org/2000/svg">
<path d="M9.70002 21V13.6C9.70002 13.0399 9.70002 12.7599 9.80901 12.546C9.90488 12.3578 10.0579 12.2049 10.246 12.109C10.4599 12 10.74 12 11.3 12H14.1C14.6601 12 14.9401 12 15.154 12.109C15.3422 12.2049 15.4951 12.3578 15.591 12.546C15.7 12.7599 15.7 13.0399 15.7 13.6V21" fill="#FEFEFE"/>
<path d="M4.70002 8L10.78 3.44C11.4685 2.92361 11.8128 2.66542 12.1909 2.56589C12.5246 2.47804 12.8754 2.47804 13.2092 2.56589C13.5872 2.66542 13.9315 2.92361 14.62 3.44L20.7 8V17.8C20.7 18.9201 20.7 19.4802 20.482 19.908C20.2903 20.2843 19.9843 20.5903 19.608 20.782C19.1802 21 18.6201 21 17.5 21H7.90002C6.77991 21 6.21986 21 5.79204 20.782C5.41571 20.5903 5.10975 20.2843 4.918 19.908C4.70002 19.4802 4.70002 18.9201 4.70002 17.8V8Z" fill="#FEFEFE"/>
<path d="M9.70002 21V13.6C9.70002 13.0399 9.70002 12.7599 9.80901 12.546C9.90488 12.3578 10.0579 12.2049 10.246 12.109C10.4599 12 10.74 12 11.3 12H14.1C14.6601 12 14.9401 12 15.154 12.109C15.3422 12.2049 15.4951 12.3578 15.591 12.546C15.7 12.7599 15.7 13.0399 15.7 13.6V21M2.70001 9.5L11.74 2.72C12.0843 2.46181 12.2564 2.33271 12.4454 2.28294C12.6123 2.23902 12.7877 2.23902 12.9546 2.28295C13.1436 2.33271 13.3158 2.46181 13.66 2.72L22.7 9.5M4.70002 8V17.8C4.70002 18.9201 4.70002 19.4802 4.918 19.908C5.10975 20.2843 5.41571 20.5903 5.79204 20.782C6.21986 21 6.77991 21 7.90002 21H17.5C18.6201 21 19.1802 21 19.608 20.782C19.9843 20.5903 20.2903 20.2843 20.482 19.908C20.7 19.4802 20.7 18.9201 20.7 17.8V8L14.62 3.44C13.9315 2.92361 13.5872 2.66542 13.2092 2.56589C12.8754 2.47804 12.5246 2.47804 12.1909 2.56589C11.8128 2.66542 11.4685 2.92361 10.78 3.44L4.70002 8Z" stroke="#FEFEFE" stroke-width="2" stroke-linecap="round" stroke-linejoin="round"/>
</svg>
