<svg width="25" height="25" viewBox="0 0 25 25" fill="none" xmlns="http://www.w3.org/2000/svg">
<path d="M14.1 9.5H11.6C10.7716 9.5 10.1 10.1716 10.1 11C10.1 11.8284 10.7716 12.5 11.6 12.5H12.6C13.4285 12.5 14.1 13.1716 14.1 14C14.1 14.8284 13.4285 15.5 12.6 15.5H10.1M12.1 8.5V9.5M12.1 15.5V16.5M18.1 12.5H18.11M6.10004 12.5H6.11004M2.10004 8.7L2.10004 16.3C2.10004 17.4201 2.10004 17.9802 2.31802 18.408C2.50977 18.7843 2.81573 19.0903 3.19206 19.282C3.61988 19.5 4.17993 19.5 5.30004 19.5L18.9 19.5C20.0201 19.5 20.5802 19.5 21.008 19.282C21.3843 19.0903 21.6903 18.7843 21.882 18.408C22.1 17.9802 22.1 17.4201 22.1 16.3V8.7C22.1 7.5799 22.1 7.01984 21.8821 6.59202C21.6903 6.2157 21.3843 5.90974 21.008 5.71799C20.5802 5.5 20.0201 5.5 18.9 5.5L5.30004 5.5C4.17993 5.5 3.61988 5.5 3.19206 5.71799C2.81573 5.90973 2.50977 6.21569 2.31802 6.59202C2.10004 7.01984 2.10004 7.57989 2.10004 8.7ZM18.6 12.5C18.6 12.7761 18.3762 13 18.1 13C17.8239 13 17.6 12.7761 17.6 12.5C17.6 12.2239 17.8239 12 18.1 12C18.3762 12 18.6 12.2239 18.6 12.5ZM6.60004 12.5C6.60004 12.7761 6.37618 13 6.10004 13C5.82389 13 5.60004 12.7761 5.60004 12.5C5.60004 12.2239 5.82389 12 6.10004 12C6.37618 12 6.60004 12.2239 6.60004 12.5Z" stroke="#8E9399" stroke-width="2" stroke-linecap="round" stroke-linejoin="round"/>
</svg>
